<svg xmlns="http://www.w3.org/2000/svg" viewBox="0 0 1200 820" role="img" aria-labelledby="title desc">
  <title id="title">Machine learning workspace illustration</title>
  <desc id="desc">A calm workspace with model cards, code windows, and experiment traces.</desc>
  <defs>
    <linearGradient id="wall" x1="0" x2="1" y1="0" y2="1">
      <stop offset="0" stop-color="#f8fbf8"/>
      <stop offset="1" stop-color="#e9f1ee"/>
    </linearGradient>
    <linearGradient id="screen" x1="0" x2="1">
      <stop offset="0" stop-color="#14213d"/>
      <stop offset="1" stop-color="#243b55"/>
    </linearGradient>
    <filter id="shadow" x="-20%" y="-20%" width="140%" height="140%">
      <feDropShadow dx="0" dy="18" stdDeviation="18" flood-color="#183029" flood-opacity=".18"/>
    </filter>
  </defs>
  <rect width="1200" height="820" fill="url(#wall)"/>
  <circle cx="980" cy="150" r="92" fill="#f3c969" opacity=".42"/>
  <circle cx="145" cy="665" r="118" fill="#87b8a4" opacity=".18"/>
  <path d="M83 555c194-106 341-91 481 45 153 149 311 138 553 33v187H83z" fill="#d7e6df"/>
  <g filter="url(#shadow)">
    <rect x="164" y="135" width="872" height="545" rx="18" fill="#ffffff"/>
    <rect x="164" y="135" width="872" height="70" rx="18" fill="#25312e"/>
    <circle cx="212" cy="170" r="10" fill="#ff7470"/>
    <circle cx="246" cy="170" r="10" fill="#ffd166"/>
    <circle cx="280" cy="170" r="10" fill="#7bd389"/>
    <rect x="220" y="255" width="365" height="286" rx="14" fill="url(#screen)"/>
    <rect x="250" y="287" width="105" height="10" rx="5" fill="#7bd389"/>
    <rect x="250" y="326" width="224" height="9" rx="4.5" fill="#e8f0ff" opacity=".86"/>
    <rect x="250" y="358" width="272" height="9" rx="4.5" fill="#e8f0ff" opacity=".66"/>
    <rect x="250" y="390" width="170" height="9" rx="4.5" fill="#e8f0ff" opacity=".66"/>
    <path d="M252 484c54-74 101-31 141-78 43-50 73 13 151-48" fill="none" stroke="#f3c969" stroke-width="7" stroke-linecap="round"/>
    <path d="M252 512c55-24 108-20 160-68 42-39 78-36 132-20" fill="none" stroke="#87b8a4" stroke-width="7" stroke-linecap="round"/>
    <g fill="#f5f7f5">
      <rect x="636" y="255" width="306" height="70" rx="12"/>
      <rect x="636" y="348" width="306" height="70" rx="12"/>
      <rect x="636" y="441" width="306" height="100" rx="12"/>
    </g>
    <g fill="#25312e">
      <rect x="664" y="280" width="112" height="10" rx="5"/>
      <rect x="664" y="373" width="156" height="10" rx="5"/>
      <rect x="664" y="468" width="138" height="10" rx="5"/>
    </g>
    <g fill="#7b8f88">
      <rect x="664" y="302" width="220" height="8" rx="4"/>
      <rect x="664" y="395" width="190" height="8" rx="4"/>
      <rect x="664" y="492" width="236" height="8" rx="4"/>
      <rect x="664" y="516" width="171" height="8" rx="4"/>
    </g>
  </g>
  <rect x="282" y="680" width="638" height="24" rx="12" fill="#25312e" opacity=".12"/>
</svg>
